<?xml version="1.0" encoding="UTF-8"?>
<svg version="1.1" xmlns="http://www.w3.org/2000/svg" width="534" height="534">
<path d="M0 0 C1.12781496 -0.00262956 1.12781496 -0.00262956 2.27841407 -0.00531223 C4.80008783 -0.00996743 7.32170382 -0.00750796 9.84337997 -0.00507832 C11.66871842 -0.00694653 13.49405646 -0.00924728 15.31939387 -0.01194364 C20.3374334 -0.01806678 25.35545627 -0.01792744 30.37349868 -0.01674926 C35.7846806 -0.01654539 41.19585716 -0.02206279 46.60703659 -0.02680683 C57.20952838 -0.03511684 67.81201461 -0.03786183 78.41450939 -0.03841921 C87.03222647 -0.03889422 95.64994173 -0.04094821 104.26765823 -0.04411983 C128.69607873 -0.05292749 153.12449482 -0.05753906 177.55291691 -0.05678936 C179.52874599 -0.05672943 179.52874599 -0.05672943 181.54449081 -0.05666828 C182.86331704 -0.0566274 184.18214328 -0.05658652 185.54093394 -0.0565444 C206.91537447 -0.05604282 228.28979622 -0.06570736 249.66423181 -0.07980665 C271.60705209 -0.09416674 293.54986379 -0.10107703 315.49268889 -0.10021287 C327.81361621 -0.09988077 340.13452506 -0.10263372 352.45544815 -0.11339092 C362.94578493 -0.1224911 373.43609488 -0.12467515 383.92643389 -0.1178815 C389.27848746 -0.11461382 394.63048953 -0.11456858 399.98253822 -0.12323475 C404.88400715 -0.13108968 409.78538364 -0.12967857 414.68685028 -0.12095062 C416.45803539 -0.11941341 418.22922737 -0.12124009 420.00040439 -0.12681069 C446.87266686 -0.20571585 446.87266686 -0.20571585 457.19146347 9.9137907 C465.81891991 20.47050247 465.94933543 32.49612453 465.87908554 45.46115398 C465.88369932 47.3189731 465.89005543 49.17678856 465.89799452 51.03459644 C465.91464538 56.11931521 465.90646074 61.2037325 465.89404964 66.28845215 C465.88498411 71.78002019 465.89897635 77.27153708 465.90996933 82.7630949 C465.92774305 93.51299482 465.92391964 104.26278293 465.91231877 115.01268721 C465.90328023 123.75042195 465.90206227 132.48812538 465.90641403 141.22586346 C465.90702696 142.47010967 465.9076399 143.71435589 465.9082714 144.99630654 C465.90955032 147.52407663 465.91084717 150.05184671 465.91216177 152.57961679 C465.92323925 175.59963048 465.9117572 198.61959469 465.89079138 221.63959625 C465.87180987 242.64053224 465.87350842 263.64137119 465.89263535 284.64230633 C465.91406799 308.253616 465.9224656 331.86488437 465.91018629 355.47620487 C465.90891211 357.99460506 465.90765463 360.51300525 465.90641403 363.03140545 C465.90548838 364.88999083 465.90548838 364.88999083 465.90454403 366.78612339 C465.90109231 375.511981 465.90691565 384.23780415 465.91633224 392.96365643 C465.92755791 403.59953831 465.92450012 414.23530214 465.90320927 424.87117052 C465.89270662 430.29633964 465.8885638 435.721312 465.90180588 441.14647961 C465.91375163 446.11575622 465.90713105 451.08465425 465.88589567 456.05389667 C465.88143889 457.84849892 465.88367504 459.64313337 465.89339882 461.43771482 C465.95831717 474.41757117 465.0303603 485.39204493 455.66021347 495.18332195 C448.51115137 501.25880477 441.04962825 503.28205847 431.88186932 503.26285553 C431.12078134 503.26520776 430.35969337 503.26755999 429.57554212 503.2699835 C427.01048487 503.27667107 424.4454783 503.27621535 421.88041306 503.27580547 C420.0286395 503.27910425 418.17686667 503.28282985 416.32509476 503.28694695 C411.22465961 503.29697353 406.12423623 503.30068481 401.02379262 503.30333626 C395.52734525 503.30723737 390.03090721 503.31681585 384.53446579 503.32554913 C371.25454179 503.34531916 357.97461701 503.3553805 344.69468197 503.36427692 C338.44247503 503.36865899 332.19026894 503.37402602 325.93806267 503.37926579 C305.15684918 503.39627871 284.37563599 503.410798 263.59441662 503.41801453 C262.25045965 503.41848928 260.90650269 503.41896517 259.56254572 503.41944219 C258.89606774 503.41967856 258.22958976 503.41991494 257.54291547 503.42015848 C254.16624332 503.42135967 250.78957117 503.42257512 247.41289902 503.42380047 C246.40773504 503.42416069 246.40773504 503.42416069 245.38226472 503.4245282 C223.66004409 503.43241957 201.93787809 503.45584786 180.21568131 503.48835641 C157.24654714 503.52266827 134.27743552 503.54236581 111.3082729 503.54565877 C98.78884249 503.54782461 86.26949236 503.55658426 73.75008583 503.58211994 C63.08843291 503.603816 52.42687978 503.61188271 41.76520728 503.60215316 C36.32589801 503.59760531 30.88679467 503.59952308 25.44751358 503.6189146 C20.46502468 503.63652412 15.48289229 503.63556632 10.50039972 503.62001731 C8.7008695 503.6176379 6.90131475 503.62198206 5.10182207 503.63384596 C-7.02576392 503.70882965 -18.05449242 502.94915587 -27.84369278 494.94894695 C-38.70385735 483.87490606 -37.92346527 469.64887818 -37.88954544 455.18884563 C-37.89256863 453.36147925 -37.89645896 451.53411412 -37.90113801 449.70675123 C-37.91140502 444.70159297 -37.90923948 439.69650646 -37.90495741 434.69134235 C-37.90248785 429.28700396 -37.9115072 423.88268273 -37.9189949 418.47835064 C-37.93173736 407.89712027 -37.93353617 397.31591528 -37.93119464 386.73467852 C-37.92941087 378.13328123 -37.93116238 369.53189163 -37.93541908 360.93049526 C-37.93631187 359.09349708 -37.93631187 359.09349708 -37.93722269 357.21938782 C-37.93843445 354.73140094 -37.93964858 352.24341405 -37.94086506 349.75542717 C-37.95173878 326.42874732 -37.94957886 303.10208194 -37.94348022 279.77540128 C-37.93831079 258.44135186 -37.94956749 237.10735926 -37.96857844 215.77331717 C-37.98795591 193.85973785 -37.99621302 171.94618013 -37.99245518 150.03259218 C-37.99054306 137.73289161 -37.99303188 125.43322991 -38.00716972 113.13353634 C-38.01908329 102.66310408 -38.02048861 92.19273462 -38.00837956 81.7223015 C-38.00249085 76.38210188 -38.00139133 71.04201711 -38.01338196 65.70182514 C-38.02424027 60.80900449 -38.0211379 55.9163946 -38.00712027 51.02358381 C-38.00447323 49.25786674 -38.00684009 47.49213314 -38.01485614 45.72643228 C-38.07567376 31.32536141 -37.45995452 19.22923377 -26.96478653 8.4137907 C-19.2935216 1.25044058 -10.21823841 -0.03034475 0 0 Z " fill="#D9804D" transform="translate(52.628849029541016,14.871365547180176)"/>
<path d="M0 0 C0 0.33 0 0.66 0 1 C-1.75763672 1.34611328 -1.75763672 1.34611328 -3.55078125 1.69921875 C-12.57436189 3.54355248 -20.85082517 5.54909719 -29 10 C-29.87140625 10.45246094 -30.7428125 10.90492187 -31.640625 11.37109375 C-41.47268044 16.80227407 -46.46449408 23.20664968 -49.55078125 33.91015625 C-51.60713438 43.47666865 -49.18825793 50.60448657 -44.375 58.75 C-38.60856926 64.21293439 -31.9394603 66.17949249 -24.25 67.5 C-14.87222797 69.23418096 -14.87222797 69.23418096 -11 74 C-9.48992032 76.73252513 -8.05990328 79.50078585 -6.625 82.2734375 C-2.52722556 89.14903019 3.39300382 92.94096344 11 95 C14.07583458 95.43921128 17.08314593 95.52475612 20.1875 95.5 C21.43043823 95.49250732 21.43043823 95.49250732 22.69848633 95.48486328 C33.65683803 95.17701459 42.85503089 91.29400219 51 84 C51.67675781 83.43796875 52.35351562 82.8759375 53.05078125 82.296875 C60.42147504 75.68962407 64.75154202 66.79553844 66 57 C66.085188 54.08963975 66.0227268 51.18772962 65.95703125 48.27734375 C65.93465529 46.5879022 65.91319856 44.89844827 65.89257812 43.20898438 C65.8554312 40.56663236 65.81221881 37.92491823 65.75317383 35.28295898 C65.698631 32.71849333 65.66958755 30.15474475 65.64453125 27.58984375 C65.60885796 26.40998146 65.60885796 26.40998146 65.57246399 25.20628357 C65.55444234 21.42284291 65.84880993 19.2418017 67.87426758 16.00244141 C70.39799688 13.62508666 71.45423625 13.34691903 74.875 13.4375 C79.67654192 13.71911536 82.40261974 14.64789566 86 18 C87.63472542 20.01405397 89.01005028 22.03806269 90.34375 24.265625 C91.9796251 27.08147279 91.9796251 27.08147279 94.15625 29.796875 C101.11866436 40.04437219 100.45951505 50.22018506 100.13525391 62.14404297 C99.83415037 73.7669429 101.35087555 83.35691798 105.15625 94.3359375 C110.07009012 108.83176586 108.98689485 121.10069547 103 135 C101.72637171 137.4336627 100.41864796 139.7708102 98.91796875 142.0703125 C97.76937114 144.48481131 97.84009349 146.35925815 98 149 C106.58352081 148.02828066 113.37813036 142.30399977 119.2890625 136.2265625 C121.95212447 132.76093391 123.98309387 128.89641024 125.89697266 124.97436523 C128.37636642 120.18814351 131.10889332 117.94222657 136 116 C139.54296875 115.12890625 139.54296875 115.12890625 143.1875 114.5625 C158.89645281 111.76143719 170.40366489 104.78777534 179.6953125 91.7265625 C191.48054596 73.35636831 198.29429893 52.99740819 194 31.0625 C193.68206122 29.70463646 193.35538209 28.34854812 193 27 C198.81214417 25.00975691 204.0654924 24.64950247 210.1875 24.6875 C211.58415894 24.69487183 211.58415894 24.69487183 213.0090332 24.70239258 C232.77021353 25.03796953 248.19355521 34.33944869 261.765625 48.34375 C266.39784866 53.85058931 269.85774253 59.85126502 271 67 C270.1646875 65.948125 270.1646875 65.948125 269.3125 64.875 C268.549375 63.92625 267.78625 62.9775 267 62 C266.278125 61.030625 265.55625 60.06125 264.8125 59.0625 C257.72713948 50.66344041 244.85064014 44.38478449 234 43 C228.16080538 42.53257679 222.94885936 42.16477456 217.5 44.5 C209.84699089 52.15300911 206.91299453 61.24741682 206.5625 71.9375 C206.67615418 77.72754907 207.77381399 82.38053621 210.02734375 87.6953125 C212.30248278 93.08620417 212.30248278 93.08620417 211.39501953 95.82763672 C211.06099121 96.43881348 210.72696289 97.04999023 210.3828125 97.6796875 C210.02316406 98.36160156 209.66351563 99.04351562 209.29296875 99.74609375 C208.71482422 100.79990234 208.71482422 100.79990234 208.125 101.875 C203.05332808 111.2047992 201.03138688 121.0744767 204.0625 131.5625 C205.40847373 135.23274056 207.40023667 138.01543296 209.75 141.125 C212.22658863 144.50599042 212.97137423 145.63931525 213.3125 149.9375 C212 153 212 153 209.4375 154.8125 C206.91643338 155.68341392 204.58198116 156.35271348 202 156.9375 C195.71650834 158.40045035 191.7026163 161.78891039 188 167 C186.40383257 170.19233485 186.48533886 173.53461497 187 177 C188.87015094 179.43119623 190.28138345 180.64069173 193 182 C200.50052522 182.68902463 207.23542415 183.12113105 213.44921875 178.4375 C216.18508274 175.90148502 218.33203738 173.33592524 220 170 C219.85691406 168.52660156 219.85691406 168.52660156 219.7109375 167.0234375 C219.35131511 163.11777109 219.26773584 159.86141625 220 156 C222.49639231 153.33339913 225.05175327 151.73172976 228.171875 149.84765625 C234.0293583 146.02087503 236.54608638 140.02528749 239.3125 133.8125 C241.58813367 129.08618391 244.21942763 127.05515325 248.66796875 124.4140625 C258.47897387 118.46501082 265.18326091 109.42848337 269.95703125 99.1640625 C271 97 271 97 273 94 C272.84144531 94.98871094 272.68289063 95.97742188 272.51953125 96.99609375 C271.95071967 101.0121258 271.74534409 105.0095574 271.6875 109.0625 C271.65849609 109.74376953 271.62949219 110.42503906 271.59960938 111.12695312 C271.5353859 116.26977148 272.88454561 118.99101185 276 123 C276.33 123.66 276.66 124.32 277 125 C275.92621094 125.19335938 274.85242188 125.38671875 273.74609375 125.5859375 C270.42079644 126.54080034 270.02844278 126.96066534 267.84765625 129.9765625 C267.23353089 131.18318908 266.63914828 132.40002064 266.0625 133.625 C263.2463434 139.09190223 260.33306332 143.01015224 255.76171875 147.1953125 C249.84667511 153.2546255 248.63860629 161.03234252 248.71484375 169.16796875 C249.12898116 173.28097731 250.38016434 176.7737209 253 180 C257.18013201 182.63322245 261.20532486 182.84521517 266 182 C273.48299399 178.8738808 277.92855418 173.35653285 281 166 C282.65942191 160.74579975 283.86365579 155.38760842 285 150 C287 151 287 151 287.609375 152.63671875 C289.35870919 163.22019061 288.41305172 171.33217859 282.25 180 C281.18378997 181.34706535 280.10032447 182.68065359 279 184 C278.49726563 184.61101562 277.99453125 185.22203125 277.4765625 185.8515625 C270.73900028 193.31218017 260.9412017 197.82352643 251 199 C247.4375 199.125 247.4375 199.125 245 199 C244.88785156 199.72445312 244.77570313 200.44890625 244.66015625 201.1953125 C242.71573497 209.45622656 236.9285705 216.34452519 230 221 C219.5569471 226.85480082 210.9171005 230.3597562 198.875 230.25 C197.84906738 230.24540771 196.82313477 230.24081543 195.76611328 230.23608398 C187.74730745 230.14006181 180.15765206 229.52064514 172.4296875 227.2421875 C169.9655951 226.74390607 169.9655951 226.74390607 168.078125 228.22265625 C167.17320312 229.13337891 167.17320312 229.13337891 166.25 230.0625 C156.90917625 238.85800259 149.11229238 242.26348518 136.2109375 242.16015625 C133.45108396 242.02249932 130.95232172 241.6512416 128.25 241.125 C123.49033219 240.48393773 120.71216778 242.54121216 116.9453125 245.26171875 C111.82631725 249.83592134 111.43231146 253.5570265 110.9375 260.1875 C110.70560367 263.15164024 110.39948717 266.0497133 110 269 C107.10687304 270.44656348 105.23433934 270.29947586 102 270 C99.99880095 269.13252745 98.11266893 268.11441282 96.1875 267.08984375 C87.6108223 262.8168204 78.15524906 261.21299221 68.8515625 263.9140625 C63.20992103 266.11671849 58.37717424 268.79616439 53.71875 272.66796875 C51.82687028 274.13417553 50.27166897 275.21802164 48 276 C46.66076767 275.34526419 45.32867167 274.67590963 44 274 C41.33040405 273.80729031 38.79043613 273.72065575 36.125 273.75 C35.43019531 273.74226563 34.73539063 273.73453125 34.01953125 273.7265625 C29.63697006 273.74306932 26.07076804 274.39211043 22 276 C16.64526788 270.79623048 15.76686939 265.86752189 14.6875 258.625 C14.51927734 257.60277344 14.35105469 256.58054687 14.17773438 255.52734375 C13.7677338 253.02048309 13.37577506 250.51217896 13 248 C4.12351691 248.2796948 4.12351691 248.2796948 -4.375 250.5625 C-12.47042379 253.59454987 -22.87215038 253.27355626 -30.8828125 250.0390625 C-39.69013625 245.716649 -45.56269477 241.15595785 -51 233 C-52.40185547 233.433125 -52.40185547 233.433125 -53.83203125 233.875 C-67.34505865 237.79290614 -82.7238033 239.80200199 -96 234 C-96.65484375 233.75636719 -97.3096875 233.51273438 -97.984375 233.26171875 C-109.41521335 228.43790497 -118.1078069 217.81335678 -123.01953125 206.69140625 C-124.51249126 202.56554139 -125.23777762 198.52176034 -125.875 194.1875 C-126.50230947 190.40782867 -126.6871688 189.32085251 -129.4375 186.5 C-130.7059375 185.7575 -130.7059375 185.7575 -132 185 C-133.02019573 184.0206121 -134.02446727 183.02388275 -135 182 C-133.92621094 181.90203125 -132.85242188 181.8040625 -131.74609375 181.703125 C-130.30980755 181.55292514 -128.87361417 181.40183586 -127.4375 181.25 C-126.73302734 181.188125 -126.02855469 181.12625 -125.30273438 181.0625 C-119.99012282 180.47493006 -116.4083544 179.0637212 -112 176 C-110.4265737 171.2797211 -109.91915379 167.25047622 -112.09375 162.72265625 C-117.18312652 154.80434438 -123.32898127 149.12681303 -131.27734375 144.1640625 C-131.84582031 143.77992188 -132.41429687 143.39578125 -133 143 C-133 142.67 -133 142.34 -133 142 C-132.1646875 141.88785156 -132.1646875 141.88785156 -131.3125 141.7734375 C-125.00783978 140.68716158 -120.67142516 138.38541954 -116 134 C-113.12088414 128.24176829 -114.78100003 120.16919801 -116.5 114.25 C-118.59198547 106.86421091 -118.26043442 99.60082682 -118 92 C-117.01 91.505 -117.01 91.505 -116 91 C-115.86464844 91.99257812 -115.72929688 92.98515625 -115.58984375 94.0078125 C-113.7536449 106.05273997 -110.09496042 119.5407223 -100.10546875 127.51171875 C-96.74768771 129.57015479 -94.12131348 130.96967163 -90.25 131.9375 C-85.99640578 133.32809811 -85.3386187 135.27282644 -83 139 C-76.98895687 144.67797742 -69.66859637 147.12996153 -61.5 147.3125 C-53.99905974 147.08170184 -45.09639197 146.1407973 -39.55859375 140.54296875 C-35.38538825 135.65639478 -34.444103 132.56512225 -34.55078125 126.23828125 C-36.29109646 113.69287854 -46.27775941 102.63560823 -53.69067383 92.88427734 C-55.83513107 89.79814626 -57 87.80961989 -57 84 C-57.66 84 -58.32 84 -59 84 C-59.81756238 81.93950145 -60.62884734 79.87651147 -61.4375 77.8125 C-61.88996094 76.66394531 -62.34242188 75.51539062 -62.80859375 74.33203125 C-67.92988239 60.00921417 -65.75124459 43.62704412 -59.6796875 30.046875 C-52.36004841 15.40759683 -40.10440613 8.06678935 -25 3 C-16.79085451 0.42677552 -8.54875325 -0.15543188 0 0 Z " fill="#FE9C00" transform="translate(204,39)"/>
<path d="M0 0 C3.36909568 1.41972809 5.116407 3.09040037 7.375 5.9375 C11.04020283 10.19810497 13.85038215 12.67433789 19.64453125 13.2734375 C26.66981796 13.51795886 30.1908945 12.43341966 35.5703125 7.7734375 C37.2788048 6.16944014 38.98713716 4.5652724 40.6953125 2.9609375 C44.63644665 -0.39236647 48.00261009 -0.09429038 53 0 C52.566875 0.42410156 52.13375 0.84820312 51.6875 1.28515625 C48.78852257 4.33847739 47.14249897 6.21625569 46.375 10.4375 C47.32405674 15.84712343 48.5741468 20.19730175 53.12890625 23.58203125 C61.48780633 28.36051284 69.50702521 28.84810333 79 28 C84.27830671 26.44004184 87.87957786 24.20045229 91.625 20.1875 C94.10941113 14.4281833 93.21020541 9.05102707 92 3 C93.5 4.375 93.5 4.375 95 6 C95 6.66 95 7.32 95 8 C95.969375 7.896875 96.93875 7.79375 97.9375 7.6875 C104.96247209 7.72998975 110.43566408 12.2157181 115.3125 16.875 C123.03890425 25.07758423 125.56989149 33.94448679 125.38671875 45.08984375 C124.79220341 49.56372184 122.97394326 52.65963966 120 56 C118.67151309 57.00642948 117.33849671 58.00692179 116 59 C115.05733948 60.69028782 114.11656412 62.38177811 113.19921875 64.0859375 C111.03770119 67.53591667 108.2124522 70.50612263 105 73 C104.3090625 73.14695312 103.618125 73.29390625 102.90625 73.4453125 C102.2771875 73.62835938 101.648125 73.81140625 101 74 C100.32685306 75.33007347 99.66063128 76.66366601 99 78 C92.43993387 82.15941571 85.55154227 82.51683559 78 82 C77.67 82.99 77.34 83.98 77 85 C72.33976199 87.2438183 68.35996297 88.17679455 63.2109375 88.5859375 C62.2317334 88.66634277 61.2525293 88.74674805 60.24365234 88.82958984 C59.50324707 88.8858252 58.7628418 88.94206055 58 89 C62.69812925 105.42075778 62.69812925 105.42075778 68.83203125 121.3359375 C70.11770736 124.268483 71.21156803 127.24346818 72.3125 130.25 C74.58680205 136.2590984 77.35764177 141.92868929 80.3215332 147.62011719 C81.93022374 150.73059038 83.2432957 153.58408734 84 157 C84.66 157 85.32 157 86 157 C86.39832031 157.83144531 86.79664063 158.66289062 87.20703125 159.51953125 C87.73683594 160.60621094 88.26664063 161.69289063 88.8125 162.8125 C89.33457031 163.89144531 89.85664063 164.97039062 90.39453125 166.08203125 C91.79345152 168.62459436 92.94956958 170.04533144 95 172 C96.0548808 173.91723582 96.93729283 175.8745426 97.83984375 177.8671875 C99.28245295 180.51925693 101.07966436 182.6706398 103 185 C104.57200394 187.03435804 106.13426779 189.07627388 107.6875 191.125 C108.47511719 192.15882813 109.26273438 193.19265625 110.07421875 194.2578125 C112 197 112 197 113 200 C44.36 200 -24.28 200 -95 200 C-93.57246209 197.14492419 -92.11376117 194.35797233 -90.56640625 191.5703125 C-65.22438214 145.78759208 -65.22438214 145.78759208 -50 96 C-50.58007812 95.97421875 -51.16015625 95.9484375 -51.7578125 95.921875 C-60.63569771 95.27727607 -64.97439735 91.34971732 -70.6796875 84.8046875 C-72 83 -72 83 -72 81 C-71.27554688 80.91363281 -70.55109375 80.82726562 -69.8046875 80.73828125 C-63.33591647 79.79815319 -59.53698456 78.77577322 -55 74 C-53.39212161 70.78424322 -53.51788029 67.4875413 -54 64 C-55.10769138 61.42183623 -56.43260501 59.35109248 -58 57 C-52.28164891 54.52719953 -47.12570869 54.85059247 -41 55 C-41 48.4 -41 41.8 -41 35 C-43.8771875 33.7625 -43.8771875 33.7625 -46.8125 32.5 C-47.89144531 32.0359375 -48.97039062 31.571875 -50.08203125 31.09375 C-52.94882024 29.82450697 -52.94882024 29.82450697 -56 30 C-57.33160956 31.34402895 -57.33160956 31.34402895 -58.5625 33.125 C-64.69801899 40.5936688 -72.57772566 43.83725125 -82 45 C-81.525625 45.639375 -81.05125 46.27875 -80.5625 46.9375 C-78.52316607 50.9345945 -77.86990835 54.51996875 -78 59 C-79.26897032 62.31342249 -80.2027887 63.53496007 -83.25 65.3125 C-86.74685564 66.18671391 -89.40658253 66.44917718 -93 66 C-99.96035193 60.86259739 -103.50468499 52.30320712 -105 44 C-105.91048698 34.68518519 -106.41438297 23.86191777 -100.55859375 16.0859375 C-96.3898223 11.53994544 -91.48625071 8.70763205 -86 6 C-85.25105469 5.62488281 -84.50210938 5.24976563 -83.73046875 4.86328125 C-83.15941406 4.57839844 -82.58835938 4.29351562 -82 4 C-81.98582031 4.80824219 -81.97164062 5.61648438 -81.95703125 6.44921875 C-81.73945359 13.1610083 -81.73945359 13.1610083 -78.875 19.0625 C-74.78774823 21.81695228 -71.05699715 24 -66 24 C-66.495 23.01 -66.495 23.01 -67 22 C-67.6378991 18.03533598 -67.85007704 14.47309767 -65.80078125 10.921875 C-63.19899593 7.80235407 -60.83157153 5.49402696 -57 4 C-54.640625 3.8046875 -54.640625 3.8046875 -52.25 3.875 C-51.45078125 3.89304687 -50.6515625 3.91109375 -49.828125 3.9296875 C-49.22484375 3.95289063 -48.6215625 3.97609375 -48 4 C-47.97421875 4.72445313 -47.9484375 5.44890625 -47.921875 6.1953125 C-47.45363905 14.35249363 -47.45363905 14.35249363 -43 21 C-35.060948 27.167528 -25.59082129 27.19287633 -16 26 C-9.09537683 24.46277668 -4.93969488 21.84599886 -1 16 C0.50156874 12.99686252 0.09281204 10.20932478 0.0625 6.875 C0.05347656 5.59367187 0.04445313 4.31234375 0.03515625 2.9921875 C0.02355469 2.00476563 0.01195312 1.01734375 0 0 Z " fill="#FE5F10" transform="translate(261,318)"/>
<path d="M0 0 C3.625 0.3125 3.625 0.3125 5.4375 1.9375 C10.0439659 11.15043181 9.07164066 18.38061032 5.953125 27.87890625 C2.90697113 35.75410993 -1.40130001 42.88415623 -6 49.9375 C-11.38954149 58.28886159 -16.847659 67.43248255 -14.9296875 77.6953125 C-13.16632661 83.83667285 -10.23027739 87.17104196 -5.125 91 C-2.50047697 92.25261327 -0.70737503 92.58733609 2.125 93 C4.92874679 93.54684648 6.22771379 93.84917413 8.10546875 96.0390625 C8.91402545 97.43637407 9.69529598 98.84981301 10.44921875 100.27734375 C13.16997687 104.98669585 17.52945973 107.64566617 22.625 109.3125 C38.89845636 111.05971254 51.85397133 104.99203541 64.25195312 95.00146484 C67.87742226 91.93419217 71.26768875 88.66981125 74.625 85.3125 C75.48867188 84.44882813 76.35234375 83.58515625 77.2421875 82.6953125 C86.53159647 72.94288002 94.12539997 61.61423691 99.625 49.3125 C99.955 49.3125 100.285 49.3125 100.625 49.3125 C101.51624074 62.23549067 96.66343243 72.91069217 90.52734375 83.8984375 C84.3746839 94.74334596 84.3746839 94.74334596 84.21875 106.82421875 C86.91451902 114.59779407 90.97736569 118.32288128 98.0625 122.1875 C110.91606008 126.27389193 122.93016661 122.75906006 134.625 117.3125 C137.15144011 115.98031587 139.6089184 114.62187969 142.0234375 113.09765625 C142.55195313 112.83855469 143.08046875 112.57945312 143.625 112.3125 C144.285 112.6425 144.945 112.9725 145.625 113.3125 C139.56480163 123.66533889 131.19628999 128.1618379 119.92578125 131.36328125 C115.25714332 132.50500229 110.59329062 132.82751309 105.8125 133.1875 C92.54937008 134.21433005 92.54937008 134.21433005 81.5625 141.0625 C79.8784698 143.88732484 79.32992637 145.24299075 78.75 148.3125 C77.89335164 152.60397882 75.80866232 154.49002407 72.4765625 157.18359375 C68.50614228 159.60437739 64.37733043 159.50766339 59.8125 159.75 C50.46832296 160.16461639 50.46832296 160.16461639 42.8125 165 C37.85530208 172.50661399 38.01594326 181.01882277 37.4140625 189.74609375 C37.33929688 190.70386719 37.26453125 191.66164063 37.1875 192.6484375 C37.12691406 193.52032715 37.06632813 194.3922168 37.00390625 195.29052734 C36.87886719 195.95777832 36.75382813 196.6250293 36.625 197.3125 C33.73187304 198.75906348 31.85933934 198.61197586 28.625 198.3125 C26.62380095 197.44502745 24.73766893 196.42691282 22.8125 195.40234375 C14.2358223 191.1293204 4.78024906 189.52549221 -4.5234375 192.2265625 C-10.16507897 194.42921849 -14.99782576 197.10866439 -19.65625 200.98046875 C-21.54812972 202.44667553 -23.10333103 203.53052164 -25.375 204.3125 C-26.71423233 203.65776419 -28.04632833 202.98840963 -29.375 202.3125 C-32.04459595 202.11979031 -34.58456387 202.03315575 -37.25 202.0625 C-37.94480469 202.05476562 -38.63960937 202.04703125 -39.35546875 202.0390625 C-43.73802994 202.05556932 -47.30423196 202.70461043 -51.375 204.3125 C-57.63160527 198.69432384 -58.2278827 191.21201845 -59.625 183.3125 C-59.88112349 181.94499508 -60.13892265 180.57780289 -60.3984375 179.2109375 C-61.45699669 173.58916449 -62.44499312 167.95697595 -63.375 162.3125 C-64.91607422 162.5290625 -64.91607422 162.5290625 -66.48828125 162.75 C-93.16854029 166.38704258 -93.16854029 166.38704258 -104.46484375 158.93359375 C-106.125 157.5625 -106.125 157.5625 -108.375 155.3125 C-106.375 150.3125 -106.375 150.3125 -105.328125 147.9765625 C-103.28811262 142.27456068 -103.42292331 136.32650839 -106 130.875 C-110.97931714 125.50257887 -116.55814666 123.33667705 -123.375 121.25 C-131.76495178 118.64025427 -131.76495178 118.64025427 -135.625 116.56640625 C-138.95857992 115.04640745 -139.92410651 115.22564385 -143.375 116.3125 C-144.7815865 116.71304192 -146.18925981 117.10977574 -147.59765625 117.50390625 C-148.3774585 117.72691406 -149.15726074 117.94992188 -149.96069336 118.1796875 C-163.26648147 121.91501372 -176.48423037 123.67169617 -189.22265625 116.76953125 C-190.28806641 116.04830078 -190.28806641 116.04830078 -191.375 115.3125 C-191.375 114.9825 -191.375 114.6525 -191.375 114.3125 C-190.65022461 114.32821045 -189.92544922 114.3439209 -189.17871094 114.36010742 C-185.82755651 114.42328143 -182.47652803 114.46174886 -179.125 114.5 C-177.98546875 114.52513672 -176.8459375 114.55027344 -175.671875 114.57617188 C-168.24192089 114.63949535 -160.1853099 114.62871965 -153.375 111.3125 C-151.43143512 107.93389295 -151.23779881 106.83190451 -152.25 103 C-158.21881709 91.06236582 -173.17060912 81.88396175 -184.9140625 76.46875 C-187.375 75.3125 -187.375 75.3125 -190.375 73.3125 C-187.405 72.3225 -184.435 71.3325 -181.375 70.3125 C-181.045 66.0225 -180.715 61.7325 -180.375 57.3125 C-178.55181565 60.04727652 -177.16552017 62.79397177 -175.76220703 65.75732422 C-172.10107531 73.41691336 -168.16685681 80.02998866 -162.375 86.3125 C-161.60285156 87.16457031 -160.83070313 88.01664062 -160.03515625 88.89453125 C-147.40443002 102.20368511 -132.44013085 109.08620677 -114.19873047 109.64916992 C-97.26280683 109.89541367 -83.2074091 105.19581819 -70.8125 93.25 C-67.03981606 89.42775699 -63.97312741 85.55528882 -62.9765625 80.15234375 C-63.03305789 75.56680119 -63.56752037 72.91486844 -66.375 69.3125 C-68.88138698 67.84660853 -71.24481425 66.62087015 -73.875 65.4375 C-75.32757073 64.74516999 -76.77809189 64.04852389 -78.2265625 63.34765625 C-79.29052246 62.83356201 -79.29052246 62.83356201 -80.37597656 62.30908203 C-95.46501597 54.78667621 -108.13820208 43.23778015 -114.375 27.375 C-116.50916535 20.91540253 -116.93142045 15.06373478 -116.375 8.3125 C-114.55114918 11.04827623 -113.19694541 13.78580757 -111.81274414 16.75805664 C-104.99138936 31.19495371 -94.70693049 42.79522303 -79.375 48.3125 C-65.75456777 53.00920077 -51.07417532 50.56865046 -38.25 44.6875 C-32.08499102 41.43553846 -27.25205302 37.25084453 -22.375 32.3125 C-21.81167969 31.77109375 -21.24835938 31.2296875 -20.66796875 30.671875 C-15.4337194 25.20284402 -12.58250714 18.07144279 -9.375 11.3125 C-8.422067 9.37233822 -7.46445149 7.43446177 -6.5 5.5 C-6.11070312 4.70980469 -5.72140625 3.91960937 -5.3203125 3.10546875 C-3.72866656 0.08660311 -3.74298417 0.34657261 0 0 Z " fill="#E54600" transform="translate(277.375,110.6875)"/>
<path d="M0 0 C7.28515507 6.26424219 14.9007341 13.8316292 16.18359375 23.78125 C17.53504095 45.35242641 11.02348795 66.08948682 -2.37890625 83.21875 C-13.21543609 95.07360623 -24.84993185 100.47858222 -40.46875 103.0078125 C-43.81399743 103.78069347 -45.96170951 104.93259129 -48.81640625 106.78125 C-49.47640625 106.78125 -50.13640625 106.78125 -50.81640625 106.78125 C-51.09484375 107.956875 -51.09484375 107.956875 -51.37890625 109.15625 C-55.96330628 120.71691095 -65.04728511 129.39496303 -75.421875 135.84765625 C-78.31385587 136.97519855 -79.88315397 136.65132661 -82.81640625 135.78125 C-82.59072038 130.81616094 -81.24346795 127.38483371 -78.94140625 122.96875 C-69.11074276 103.85094529 -72.87943717 88.1185239 -79.06030273 68.38989258 C-80.51596692 63.36768661 -80.85627992 59.30567098 -80.4921875 54.06640625 C-79.58439849 35.8212987 -80.6762064 21.64553555 -92.81640625 6.78125 C-96.70038668 3.25334676 -99.27722881 1.73516774 -104.44140625 1.21875 C-105.25867188 1.13496094 -106.0759375 1.05117188 -106.91796875 0.96484375 C-107.85769531 0.87396484 -107.85769531 0.87396484 -108.81640625 0.78125 C-106.32337836 -5.18145588 -100.91587587 -7.8230551 -95.22265625 -10.38671875 C-65.16625995 -21.40458313 -25.74639191 -20.28287185 0 0 Z " fill="#FED570" transform="translate(383.81640625,52.21875)"/>
<path d="M0 0 C-0.2165625 0.70640625 -0.433125 1.4128125 -0.65625 2.140625 C-4.35473052 15.77021061 -4.84835066 30.61382207 0 44 C0.40605565 45.39289394 0.803177 46.7884537 1.1875 48.1875 C1.5896875 49.5796875 1.5896875 49.5796875 2 51 C2.66 51 3.32 51 4 51 C4.34998047 51.82177734 4.34998047 51.82177734 4.70703125 52.66015625 C7.34599931 58.39501617 10.56885175 63.25612211 14.375 68.25 C21.11870795 77.22306105 28.36922622 86.88358276 27.48828125 98.6640625 C26.19084131 104.87101518 21.8728542 108.41994386 17 112 C9.46613873 115.8635186 -0.6988184 116.19727367 -8.87109375 114.3515625 C-15.25773167 112.27878403 -20.6904835 109.25438375 -25 104 C-25.7109375 101.78125 -25.7109375 101.78125 -26 100 C-26.556875 99.92523438 -27.11375 99.85046875 -27.6875 99.7734375 C-34.98312699 98.51642069 -39.9924642 95.69517101 -44.69140625 89.921875 C-46.26145946 87.6710719 -47.65727791 85.39285101 -49 83 C-49.38027344 82.32324219 -49.76054688 81.64648438 -50.15234375 80.94921875 C-53.59318695 74.05454804 -54.69129072 66.52507838 -56 59 C-56.30309784 67.84596649 -56.11942502 75.53529824 -53.6875 84.1171875 C-52.39576664 89.53366035 -51.56872446 95.70011474 -53.84375 100.9453125 C-57.64708362 106.05925433 -63.95831581 108.64095745 -70 110 C-69.35933594 110.49628906 -68.71867187 110.99257812 -68.05859375 111.50390625 C-50.0716943 125.63072594 -50.0716943 125.63072594 -48.65625 134.04296875 C-48.45475429 138.51785254 -49.08695221 141.60144425 -52 145 C-59.05061895 149.2916811 -66.90484669 150.00825862 -75 149 C-87.35052316 144.73594761 -96.23692774 136.64316122 -102 125 C-108.2638245 107.4612914 -109.27451081 89.85071276 -101.3125 72.625 C-95.41499217 61.7283762 -85.42664055 54.10645141 -73.58203125 50.45703125 C-68.10854738 49.48819976 -62.53392647 49.78745944 -57 50 C-56.98582031 49.42894531 -56.97164062 48.85789063 -56.95703125 48.26953125 C-56.08476228 33.4409587 -48.74509784 20.92762728 -38.1640625 10.81640625 C-34.39446058 7.6523902 -30.38333058 5.21932037 -26 3 C-25.32710938 2.65839844 -24.65421875 2.31679687 -23.9609375 1.96484375 C-16.43746757 -1.15783199 -7.98229029 -0.24744183 0 0 Z " fill="#FED570" transform="translate(143,72)"/>
<path d="M0 0 C2.15546051 0.97414473 3.6738667 2.14117677 5.47265625 3.67578125 C11.51344387 8.38171318 18.47865016 10.42449943 25.91015625 11.86328125 C26.01038086 12.61609375 26.11060547 13.36890625 26.21386719 14.14453125 C30.77360624 48.22366936 35.85501522 82.58780238 45.62670898 115.63793945 C46.6396708 119.16395124 46.97035107 121.36525613 45.91015625 124.86328125 C42.45536458 119.67503877 39.72091124 114.57205467 37.53515625 108.73828125 C37.24044434 107.96315186 36.94573242 107.18802246 36.64208984 106.3894043 C28.45415946 84.48462505 22.06433301 61.70699429 16.109375 39.09765625 C15.8400415 38.07865234 15.57070801 37.05964844 15.29321289 36.00976562 C14.80213654 34.1333953 14.32025273 32.25458522 13.84936523 30.37304688 C13.63481689 29.54998047 13.42026855 28.72691406 13.19921875 27.87890625 C12.93165771 26.81591309 12.93165771 26.81591309 12.65869141 25.73144531 C11.76832068 23.50929372 10.77336312 22.3540777 8.91015625 20.86328125 C6.32758771 20.46200614 6.32758771 20.46200614 3.91015625 21.86328125 C1.08471881 27.87791005 0.47958138 32.92276888 0.50390625 39.50390625 C0.48408247 41.38476683 0.46413974 43.26562617 0.4440918 45.14648438 C0.43652359 46.6084021 0.43652359 46.6084021 0.42880249 48.09985352 C0.31487 66.51253719 -0.36541594 84.6263572 -3.08984375 102.86328125 C-3.2276123 103.80413574 -3.36538086 104.74499023 -3.50732422 105.71435547 C-5.04436122 115.79483049 -7.37282366 125.47776339 -10.52734375 135.17578125 C-10.80352539 136.02970459 -11.07970703 136.88362793 -11.36425781 137.76342773 C-13.2690777 143.30487175 -15.77292173 148.03631104 -19.08984375 152.86328125 C-20.01855016 149.86378216 -20.09815046 147.82071358 -19.453125 144.7578125 C-19.28989746 143.95206787 -19.12666992 143.14632324 -18.95849609 142.31616211 C-18.68320068 141.00917358 -18.68320068 141.00917358 -18.40234375 139.67578125 C-15.95989753 127.45390045 -13.88819365 115.19630671 -12.08984375 102.86328125 C-11.96834961 102.05197754 -11.84685547 101.24067383 -11.72167969 100.40478516 C-9.98659785 88.35503023 -9.86112138 76.2646543 -9.77734375 64.11328125 C-9.76290222 62.93807922 -9.76290222 62.93807922 -9.74816895 61.73913574 C-8.97948487 43.17307124 -8.97948487 43.17307124 -15.7019043 26.91503906 C-16.48992432 26.23795898 -17.27794434 25.56087891 -18.08984375 24.86328125 C-21.45940423 25.77397327 -22.80923429 26.41620276 -24.69360352 29.41845703 C-26.33974895 33.479851 -26.78233536 37.02030047 -27.1171875 41.35546875 C-27.19088058 42.1706044 -27.26457367 42.98574005 -27.34049988 43.82557678 C-27.49747569 45.56435644 -27.64957578 47.30358212 -27.79718018 49.04318237 C-28.18361177 53.56810066 -28.6124909 58.08883927 -29.046875 62.609375 C-29.13221497 63.49877274 -29.21755493 64.38817047 -29.30548096 65.30451965 C-30.5676447 78.11046385 -32.66963787 90.7835331 -35.51806641 103.33227539 C-36.2078792 106.38577208 -36.87036106 109.44486633 -37.53515625 112.50390625 C-40.5089364 126.04121035 -43.66515376 139.4973459 -47.33984375 152.86328125 C-47.66871582 154.06629883 -47.99758789 155.26931641 -48.33642578 156.50878906 C-49.94321501 162.24861092 -51.71922678 167.33184166 -54.08984375 172.86328125 C-70.91984375 172.86328125 -87.74984375 172.86328125 -105.08984375 172.86328125 C-103.66230584 170.00820544 -102.20360492 167.22125358 -100.65625 164.43359375 C-75.31422589 118.65087333 -75.31422589 118.65087333 -60.08984375 68.86328125 C-60.66992188 68.8375 -61.25 68.81171875 -61.84765625 68.78515625 C-70.72554146 68.14055732 -75.0642411 64.21299857 -80.76953125 57.66796875 C-82.08984375 55.86328125 -82.08984375 55.86328125 -82.08984375 53.86328125 C-81.36539063 53.77691406 -80.6409375 53.69054687 -79.89453125 53.6015625 C-73.42576022 52.66143444 -69.62682831 51.63905447 -65.08984375 46.86328125 C-63.48196536 43.64752447 -63.60772404 40.35082255 -64.08984375 36.86328125 C-65.19753513 34.28511748 -66.52244876 32.21437373 -68.08984375 29.86328125 C-62.37149266 27.39048078 -57.21555244 27.71387372 -51.08984375 27.86328125 C-50.75984375 21.26328125 -50.42984375 14.66328125 -50.08984375 7.86328125 C-48.24261719 7.92128906 -46.39539063 7.97929687 -44.4921875 8.0390625 C-23.54284805 8.78314593 -23.54284805 8.78314593 -4.4609375 1.1328125 C-2.08984375 -0.13671875 -2.08984375 -0.13671875 0 0 Z " fill="#E54600" transform="translate(271.08984375,345.13671875)"/>
<path d="M0 0 C0.33 0 0.66 0 1 0 C1.89124074 12.92299067 -2.96156757 23.59819217 -9.09765625 34.5859375 C-15.2503161 45.43084596 -15.2503161 45.43084596 -15.40625 57.51171875 C-12.71048098 65.28529407 -8.64763431 69.01038128 -1.5625 72.875 C11.29106008 76.96139193 23.30516661 73.44656006 35 68 C37.52644011 66.66781587 39.9839184 65.30937969 42.3984375 63.78515625 C42.92695313 63.52605469 43.45546875 63.26695312 44 63 C44.66 63.33 45.32 63.66 46 64 C39.93980163 74.35283889 31.57128999 78.8493379 20.30078125 82.05078125 C15.63214332 83.19250229 10.96829062 83.51501309 6.1875 83.875 C-7.07562992 84.90183005 -7.07562992 84.90183005 -18.0625 91.75 C-19.7465302 94.57482484 -20.29507363 95.93049075 -20.875 99 C-21.73164836 103.29147882 -23.81633768 105.17752407 -27.1484375 107.87109375 C-31.11885772 110.29187739 -35.24766957 110.19516339 -39.8125 110.4375 C-49.15667704 110.85211639 -49.15667704 110.85211639 -56.8125 115.6875 C-61.76969792 123.19411399 -61.60905674 131.70632277 -62.2109375 140.43359375 C-62.28570312 141.39136719 -62.36046875 142.34914063 -62.4375 143.3359375 C-62.49808594 144.20782715 -62.55867188 145.0797168 -62.62109375 145.97802734 C-62.74613281 146.64527832 -62.87117188 147.3125293 -63 148 C-65.89312696 149.44656348 -67.76566066 149.29947586 -71 149 C-74.94912487 147.42482921 -78.468369 145.35442067 -82 143 C-78.25790024 96.93925317 -78.25790024 96.93925317 -63.7890625 84.3203125 C-59.13413592 80.88501734 -54.50566903 77.89257373 -49 76 C-58.84011201 76.1696571 -68.78317388 80.56075823 -76 87.3125 C-83.97703201 96.37184289 -88.41974665 107.70092435 -91.0625 119.375 C-92.16549677 123.63992084 -93.79218909 128.79218909 -97 132 C-99.61616493 132.27538578 -101.33486099 132.41429583 -103.60546875 131 C-105.78114593 127.87970107 -105.6759098 124.43872871 -105.9375 120.75 C-107.08299325 108.17612542 -110.6176635 96.81680057 -115 85 C-114.98952637 85.97235596 -114.97905273 86.94471191 -114.96826172 87.9465332 C-114.93165769 91.60502338 -114.90895485 95.26349788 -114.89013672 98.92211914 C-114.88017011 100.49604019 -114.8665919 102.06994318 -114.84912109 103.64379883 C-114.5564074 130.71981537 -114.5564074 130.71981537 -121.28515625 139.71875 C-123.58587947 141.43774138 -125.1992024 141.2270917 -128 141 C-133.01374642 132.75605332 -134.6332435 124.37915019 -136 115 C-136.10441406 114.33081543 -136.20882812 113.66163086 -136.31640625 112.97216797 C-137.66741443 104.18420176 -138.2143614 95.45190943 -138.3125 86.5625 C-138.33014404 85.66321777 -138.34778809 84.76393555 -138.3659668 83.83740234 C-138.35511916 73.14952182 -135.57024895 64.67334573 -128 57 C-119.62638016 49.90612206 -109.79003834 46.79461523 -99 46 C-96.99722415 45.68377223 -94.99569601 45.35820185 -93 45 C-92.70867187 45.51949219 -92.41734375 46.03898437 -92.1171875 46.57421875 C-88.30116967 53.06624909 -84.38010038 57.58584952 -77 60 C-60.72654364 61.74721254 -47.77102867 55.67953541 -35.37304688 45.68896484 C-31.74757774 42.62169217 -28.35731125 39.35731125 -25 36 C-24.13632812 35.13632813 -23.27265625 34.27265625 -22.3828125 33.3828125 C-13.09340353 23.63038002 -5.49960003 12.30173691 0 0 Z " fill="#FE6010" transform="translate(377,160)"/>
<path d="M0 0 C1.67956787 -0.00821777 1.67956787 -0.00821777 3.39306641 -0.01660156 C19.7179681 0.12208956 35.33410141 2.82458155 48.375 13.3125 C49.68359375 15.53125 49.68359375 15.53125 50.375 17.3125 C49.385 18.7975 49.385 18.7975 48.375 20.3125 C48.22672808 23.11076174 48.19110072 25.80688452 48.25 28.6015625 C48.25757324 29.4194223 48.26514648 30.2372821 48.27294922 31.07992554 C48.30555118 34.57453154 48.36142701 38.06866712 48.41601562 41.56298828 C48.45251537 44.11749037 48.47650925 46.67191264 48.5 49.2265625 C48.51659668 50.00190338 48.53319336 50.77724426 48.55029297 51.57608032 C48.66408711 64.50195043 44.17850453 74.59776022 35.375 84.0625 C24.2299614 94.73360692 12.07434181 97.82845229 -2.96875 97.5859375 C-8.26827437 97.37387254 -12.2667045 96.41234924 -16.625 93.3125 C-17.30433594 92.84972656 -17.98367187 92.38695312 -18.68359375 91.91015625 C-23.98465126 87.81160706 -26.90474311 82.87454474 -29.984375 76.984375 C-31.70283071 74.18574713 -32.7606795 72.8793931 -35.625 71.3125 C-39.00933569 70.48215193 -39.00933569 70.48215193 -42.75 69.9375 C-51.79633716 68.31124145 -59.71096312 65.73219447 -65.44140625 58.18359375 C-70.1287158 50.77362255 -70.67422993 43.23190555 -69.15625 34.66796875 C-66.28803612 23.55363995 -58.90281218 16.67918731 -49.28125 10.90625 C-42.6993583 7.40160637 -35.81134416 5.22558821 -28.625 3.3125 C-27.56410156 3.01085938 -26.50320312 2.70921875 -25.41015625 2.3984375 C-16.92361088 0.31811595 -8.71026584 0.03091698 0 0 Z " fill="#FED570" transform="translate(222.625,37.6875)"/>
<path d="M0 0 C15.48010777 5.30960218 25.12203986 13.09835492 32.546875 27.67578125 C35.03058256 35.77126201 34.71119496 46.58717691 31.3125 54.3125 C30.37660407 56.02437687 29.39621857 57.71261129 28.375 59.375 C27.85550781 60.29667969 27.33601563 61.21835938 26.80078125 62.16796875 C21.89196045 70.46376148 16.18099767 77.65631275 7.375 81.875 C1.45819646 85.11232373 -0.47819911 90.20003003 -3.28979492 96.03930664 C-7.0176525 103.61820892 -11.89723135 108.78028515 -19.625 112.375 C-19.57859375 113.31601563 -19.5321875 114.25703125 -19.484375 115.2265625 C-19.1889413 125.41902516 -19.1889413 125.41902516 -21.25 129.9375 C-30.1332732 139.05454355 -30.1332732 139.05454355 -36.90234375 139.67578125 C-38.71412109 139.68158203 -38.71412109 139.68158203 -40.5625 139.6875 C-41.76777344 139.70425781 -42.97304688 139.72101563 -44.21484375 139.73828125 C-47.88735775 139.34705124 -49.71265083 138.59963881 -52.625 136.375 C-55.10108302 132.66087547 -55.27990912 129.68102748 -54.625 125.375 C-51.58092974 119.4039391 -46.77200762 115.06503127 -40.625 112.375 C-38.34132712 111.84069179 -36.0564401 111.43644744 -33.74609375 111.03515625 C-31.25755633 110.26063908 -30.18461046 109.45116933 -28.625 107.375 C-28.53352024 102.70953232 -29.66413565 100.04306244 -32.5 96.5 C-38.37168696 89.14627666 -39.37122988 81.60614003 -38.625 72.375 C-37.69211634 66.05212186 -35.03727386 60.95319295 -31.83764648 55.47338867 C-30.10384974 52.30392419 -29.53765691 50.77442287 -30.3203125 47.1953125 C-30.75085938 46.26460937 -31.18140625 45.33390625 -31.625 44.375 C-35.72583487 34.4427027 -36.18772908 23.85041915 -32.60546875 13.625 C-26.06160957 -1.39198362 -15.51450897 -4.47784031 0 0 Z " fill="#FED570" transform="translate(444.625,82.625)"/>
<path d="M0 0 C3.36909568 1.41972809 5.116407 3.09040037 7.375 5.9375 C11.04020283 10.19810497 13.85038215 12.67433789 19.64453125 13.2734375 C26.66981796 13.51795886 30.1908945 12.43341966 35.5703125 7.7734375 C37.2788048 6.16944014 38.98713716 4.5652724 40.6953125 2.9609375 C44.63644665 -0.39236647 48.00261009 -0.09429038 53 0 C52.566875 0.42410156 52.13375 0.84820312 51.6875 1.28515625 C48.78852257 4.33847739 47.14249897 6.21625569 46.375 10.4375 C47.32405674 15.84712343 48.5741468 20.19730175 53.12890625 23.58203125 C61.48780633 28.36051284 69.50702521 28.84810333 79 28 C84.27830671 26.44004184 87.87957786 24.20045229 91.625 20.1875 C94.10941113 14.4281833 93.21020541 9.05102707 92 3 C93.5 4.375 93.5 4.375 95 6 C95 6.66 95 7.32 95 8 C95.969375 7.896875 96.93875 7.79375 97.9375 7.6875 C104.96247209 7.72998975 110.43566408 12.2157181 115.3125 16.875 C123.0366548 25.07519615 125.57981687 33.94893142 125.3828125 45.09375 C124.62426877 50.85249012 121.57168778 54.34335612 117.6875 58.4375 C114.1396967 60.50017634 111.13085288 61.71417496 107 61 C101.39897679 57.20617192 98.93236541 50.21766988 97 44 C97 43.34 97 42.68 97 42 C96.49726563 42.15726562 95.99453125 42.31453125 95.4765625 42.4765625 C86.42886023 44.38885288 76.95708703 44.07359478 68.90234375 39.3828125 C67 38 67 38 64.8125 35.625 C63.01791888 33.6523203 63.01791888 33.6523203 59.875 34 C56.84885973 34.60650491 54.2912439 35.76888364 51.5 37.0625 C42.22665895 40.9158061 31.68084921 40.13008093 22.5 36.359375 C18.96499138 34.43721406 16.0220599 32.01463698 13.0703125 29.29296875 C11.04753211 27.74681037 11.04753211 27.74681037 8.47265625 28.18359375 C6.24285751 28.91981482 4.35561538 29.7315645 2.3125 30.875 C-6.19112311 35.26534962 -14.30699426 36.53009595 -23.8125 36.4375 C-24.86405273 36.43282715 -25.91560547 36.4281543 -26.99902344 36.42333984 C-35.73975685 36.25727401 -43.32058513 35.00552977 -51.140625 30.8671875 C-53.11119765 29.7886615 -53.11119765 29.7886615 -56 30 C-57.33160956 31.34402895 -57.33160956 31.34402895 -58.5625 33.125 C-64.69801899 40.5936688 -72.57772566 43.83725125 -82 45 C-81.525625 45.639375 -81.05125 46.27875 -80.5625 46.9375 C-78.52316607 50.9345945 -77.86990835 54.51996875 -78 59 C-79.26897032 62.31342249 -80.2027887 63.53496007 -83.25 65.3125 C-86.74685564 66.18671391 -89.40658253 66.44917718 -93 66 C-99.96035193 60.86259739 -103.50468499 52.30320712 -105 44 C-105.91048698 34.68518519 -106.41438297 23.86191777 -100.55859375 16.0859375 C-96.3898223 11.53994544 -91.48625071 8.70763205 -86 6 C-85.25105469 5.62488281 -84.50210938 5.24976563 -83.73046875 4.86328125 C-83.15941406 4.57839844 -82.58835938 4.29351562 -82 4 C-81.98582031 4.80824219 -81.97164062 5.61648438 -81.95703125 6.44921875 C-81.73945359 13.1610083 -81.73945359 13.1610083 -78.875 19.0625 C-74.78774823 21.81695228 -71.05699715 24 -66 24 C-66.495 23.01 -66.495 23.01 -67 22 C-67.6378991 18.03533598 -67.85007704 14.47309767 -65.80078125 10.921875 C-63.19899593 7.80235407 -60.83157153 5.49402696 -57 4 C-54.640625 3.8046875 -54.640625 3.8046875 -52.25 3.875 C-51.45078125 3.89304687 -50.6515625 3.91109375 -49.828125 3.9296875 C-49.22484375 3.95289063 -48.6215625 3.97609375 -48 4 C-47.97421875 4.72445313 -47.9484375 5.44890625 -47.921875 6.1953125 C-47.45363905 14.35249363 -47.45363905 14.35249363 -43 21 C-35.060948 27.167528 -25.59082129 27.19287633 -16 26 C-9.09537683 24.46277668 -4.93969488 21.84599886 -1 16 C0.50156874 12.99686252 0.09281204 10.20932478 0.0625 6.875 C0.05347656 5.59367187 0.04445313 4.31234375 0.03515625 2.9921875 C0.02355469 2.00476563 0.01195312 1.01734375 0 0 Z " fill="#FE9C01" transform="translate(261,318)"/>
<path d="M0 0 C0.85722656 0.54527344 1.71445312 1.09054687 2.59765625 1.65234375 C5.32873668 3.18441326 6.45992988 3.24240572 9.5 2.75 C10.2321875 2.64171875 10.964375 2.5334375 11.71875 2.421875 C13.27258196 2.13452252 14.8210316 1.8167946 16.36328125 1.47265625 C27.29377205 -0.48673543 36.39055744 1.03433446 45.8125 6.6875 C51.47078533 12.66911592 54.43768887 19.74074556 54.26953125 27.98046875 C53.79892247 31.50662442 52.33626434 33.37170262 50 36 C41.70830978 42.17288809 34.10390331 42.7326093 24 42 C16.36174677 40.19119872 11.40361805 36.81263553 7.1875 30.125 C5.76135 26.37197368 5.43074697 23.98477118 6 20 C7.46870849 17.67964457 9.06365019 15.98475856 11 14 C4.27397662 14.2914853 1.30142029 15.6986203 -3.3125 20.5 C-7.82473671 25.01792679 -10.64990269 27.13525736 -17.1875 27.375 C-23.05961952 27.29763347 -26.62435604 25.87715288 -31 22 C-32.94667034 19.95330313 -34.77923902 17.86847638 -36.5546875 15.671875 C-37.91427976 13.88279082 -37.91427976 13.88279082 -40 13 C-39.835 13.825 -39.67 14.65 -39.5 15.5 C-38.10373444 25.27385892 -38.10373444 25.27385892 -40.6875 30.25 C-46.11088743 36.6994337 -51.61228839 39.60032726 -59.9453125 40.359375 C-68.54168324 40.74509109 -75.87907241 40.41425899 -83 35 C-87.0769359 30.72418918 -88.13015043 28.19293718 -88.0625 22.375 C-88.05347656 21.37210937 -88.04445312 20.36921875 -88.03515625 19.3359375 C-88.02355469 18.56507813 -88.01195312 17.79421875 -88 17 C-95.19145603 17.31962027 -99.41345548 18.77210993 -104.875 23.6875 C-107.06144363 28.18185634 -106.54829527 33.35511419 -105 38 C-111.2894544 37.48657515 -116.11402853 35.96014363 -120.671875 31.28515625 C-123.49962175 26.41976846 -122.61923481 20.41526912 -122 15 C-119.97619836 8.49930382 -115.27364874 5.33652546 -109.48046875 2.1875 C-101.88211074 -1.45013911 -94.4612152 -2.19909927 -86.375 0.125 C-81.86332861 1.78218686 -78.15500942 4.35804378 -75 8 C-75 8.66 -75 9.32 -75 10 C-74.175 9.51144531 -73.35 9.02289063 -72.5 8.51953125 C-68.53442045 6.79786781 -65.23580977 6.58797439 -61 6.6875 C-60.31421875 6.68427734 -59.6284375 6.68105469 -58.921875 6.67773438 C-55.53465801 6.71328723 -52.92054173 7.02942899 -49.73046875 8.2109375 C-48.82941406 8.47132813 -47.92835938 8.73171875 -47 9 C-44.93674016 7.89927242 -44.93674016 7.89927242 -43.3125 5.9375 C-31.0648596 -6.05005537 -15.14094509 -6.07670145 0 0 Z " fill="#FED46F" transform="translate(301,305)"/>
<path d="M0 0 C3.625 0.3125 3.625 0.3125 5.4375 1.9375 C10.03752411 11.13754821 9.09442217 18.39007376 5.94140625 27.87109375 C-0.77497995 45.42936154 -12.85840367 55.20159498 -29.0703125 63.73046875 C-35.34714638 66.52577901 -41.55467423 67.07812454 -48.375 67.3125 C-48.045 67.9725 -47.715 68.6325 -47.375 69.3125 C-46.30170227 79.58549257 -48.05627646 88.09647315 -53.984375 96.62890625 C-63.82246302 108.52035668 -79.15563703 116.29633586 -94.375 118.3125 C-97.52177778 118.50371816 -100.66032906 118.55040803 -103.8125 118.5625 C-104.71613281 118.56644775 -105.61976563 118.57039551 -106.55078125 118.57446289 C-114.74501827 118.50641144 -122.73191335 117.54930665 -130.82202148 116.29199219 C-131.73669189 116.1530957 -132.6513623 116.01419922 -133.59375 115.87109375 C-134.7993457 115.67471313 -134.7993457 115.67471313 -136.02929688 115.47436523 C-140.07197431 115.19540029 -143.75050692 116.37081417 -147.59765625 117.50390625 C-161.69484987 121.53542107 -175.58895693 124.15678946 -189.22265625 116.76953125 C-190.28806641 116.04830078 -190.28806641 116.04830078 -191.375 115.3125 C-191.375 114.9825 -191.375 114.6525 -191.375 114.3125 C-190.65022461 114.32821045 -189.92544922 114.3439209 -189.17871094 114.36010742 C-185.82755651 114.42328143 -182.47652803 114.46174886 -179.125 114.5 C-177.98546875 114.52513672 -176.8459375 114.55027344 -175.671875 114.57617188 C-168.24192089 114.63949535 -160.1853099 114.62871965 -153.375 111.3125 C-151.43143512 107.93389295 -151.23779881 106.83190451 -152.25 103 C-158.21881709 91.06236582 -173.17060912 81.88396175 -184.9140625 76.46875 C-187.375 75.3125 -187.375 75.3125 -190.375 73.3125 C-187.405 72.3225 -184.435 71.3325 -181.375 70.3125 C-181.045 66.0225 -180.715 61.7325 -180.375 57.3125 C-178.55181565 60.04727652 -177.16552017 62.79397177 -175.76220703 65.75732422 C-172.10107531 73.41691336 -168.16685681 80.02998866 -162.375 86.3125 C-161.60285156 87.16457031 -160.83070313 88.01664062 -160.03515625 88.89453125 C-147.40443002 102.20368511 -132.44013085 109.08620677 -114.19873047 109.64916992 C-97.26280683 109.89541367 -83.2074091 105.19581819 -70.8125 93.25 C-67.03981606 89.42775699 -63.97312741 85.55528882 -62.9765625 80.15234375 C-63.03305789 75.56680119 -63.56752037 72.91486844 -66.375 69.3125 C-68.88138698 67.84660853 -71.24481425 66.62087015 -73.875 65.4375 C-75.32757073 64.74516999 -76.77809189 64.04852389 -78.2265625 63.34765625 C-79.29052246 62.83356201 -79.29052246 62.83356201 -80.37597656 62.30908203 C-95.46501597 54.78667621 -108.13820208 43.23778015 -114.375 27.375 C-116.50916535 20.91540253 -116.93142045 15.06373478 -116.375 8.3125 C-114.55114918 11.04827623 -113.19694541 13.78580757 -111.81274414 16.75805664 C-104.99138936 31.19495371 -94.70693049 42.79522303 -79.375 48.3125 C-65.75456777 53.00920077 -51.07417532 50.56865046 -38.25 44.6875 C-32.08499102 41.43553846 -27.25205302 37.25084453 -22.375 32.3125 C-21.81167969 31.77109375 -21.24835938 31.2296875 -20.66796875 30.671875 C-15.4337194 25.20284402 -12.58250714 18.07144279 -9.375 11.3125 C-8.422067 9.37233822 -7.46445149 7.43446177 -6.5 5.5 C-6.11070312 4.70980469 -5.72140625 3.91960937 -5.3203125 3.10546875 C-3.72866656 0.08660311 -3.74298417 0.34657261 0 0 Z " fill="#FE6010" transform="translate(277.375,110.6875)"/>
<path d="M0 0 C0.99 0.66 1.98 1.32 3 2 C3.38818359 4.05273438 3.38818359 4.05273438 3.3984375 6.59375 C3.40464111 7.5324292 3.41084473 8.4711084 3.41723633 9.43823242 C3.40329834 10.44861572 3.38936035 11.45899902 3.375 12.5 C3.36557373 13.53938721 3.35614746 14.57877441 3.34643555 15.6496582 C3.16634656 25.00208842 2.03116988 33.88252427 0 43 C-0.17160645 43.77875488 -0.34321289 44.55750977 -0.52001953 45.35986328 C-3.34132202 57.88301738 -7.08042688 70.08583399 -11.1015625 82.26953125 C-11.97563125 84.9259402 -12.8331647 87.58718858 -13.6875 90.25 C-25.38222588 126.38222588 -25.38222588 126.38222588 -29 130 C-30.4887186 130.08669432 -31.981445 130.10703494 -33.47265625 130.09765625 C-34.37177734 130.09443359 -35.27089844 130.09121094 -36.19726562 130.08789062 C-37.14279297 130.07951172 -38.08832031 130.07113281 -39.0625 130.0625 C-40.01189453 130.05798828 -40.96128906 130.05347656 -41.93945312 130.04882812 C-44.29303065 130.0370011 -46.64648477 130.02052025 -49 130 C-48.70899414 129.47446533 -48.41798828 128.94893066 -48.11816406 128.4074707 C-47.30177072 126.9323363 -46.48657444 125.45653936 -45.671875 123.98046875 C-44.47451919 121.84593023 -43.25290072 119.72493095 -42.015625 117.61328125 C-23.01093805 85.04181393 -6.51483498 42.9486382 -2.4375 5.25 C-2 2 -2 2 0 0 Z " fill="#FE5F10" transform="translate(227,388)"/>
<path d="M0 0 C3.94949704 0.62816498 7.19892028 1.8645529 10.8125 3.5625 C11.78832031 4.01753906 12.76414063 4.47257812 13.76953125 4.94140625 C14.50558594 5.29074219 15.24164063 5.64007813 16 6 C16.02722517 8.20826378 16.04649729 10.41662638 16.0625 12.625 C16.07410156 13.85476563 16.08570313 15.08453125 16.09765625 16.3515625 C16.00863924 19.67723791 15.63686087 22.74047588 15 26 C13.89591797 26.07347656 13.89591797 26.07347656 12.76953125 26.1484375 C11.79371094 26.22320312 10.81789062 26.29796875 9.8125 26.375 C8.84957031 26.44460938 7.88664062 26.51421875 6.89453125 26.5859375 C3.98491062 27.00215853 1.67109226 27.79874096 -1 29 C-0.34 29.825 0.32 30.65 1 31.5 C2.99745369 34.55366122 3.71237664 37.25145453 3.51953125 40.97265625 C2.30357309 45.71763583 -1.27015228 48.92468925 -5.3125 51.4375 C-9.28586984 52.26913555 -12.97344814 52.71311026 -17 52 C-19.875 49.75 -19.875 49.75 -21.28125 48.35546875 C-23.50513585 46.6016315 -25.68721269 45.93750768 -28.375 45.0625 C-37.693957 41.87609951 -43.35727139 36.67457187 -48 28 C-50.26797653 22.33005867 -50.21770562 17.01109404 -50 11 C-48.46637296 13.85189368 -47.50823817 16.56063863 -46.6875 19.6875 C-44.85473006 25.96729548 -42.57517757 32.28321495 -37 36 C-32.52867457 36.33120929 -28.94081491 36.25189423 -25 34 C-22.23868366 29.6607886 -22.94644021 25.84135808 -24 21 C-25.4225861 17.56404793 -25.4225861 17.56404793 -27 15 C-26.33355469 14.93683594 -25.66710937 14.87367188 -24.98046875 14.80859375 C-15.7457329 13.58160088 -7.89803976 9.77943588 -1.8125 2.5625 C-1.214375 1.716875 -0.61625 0.87125 0 0 Z " fill="#FE6011" transform="translate(205,347)"/>
<path d="M0 0 C3.25 0.4375 3.25 0.4375 5.9375 2.8125 C11.7720334 10.90556246 12.18132356 20.8103351 11.25 30.4375 C9.21032406 40.67045046 5.44058804 49.63009084 -3.0625 56 C-7.62410177 58.75692767 -11.51854919 59.57048841 -16.75 58.4375 C-20.71990118 56.59958279 -22.34532362 55.09847143 -24.625 51.375 C-27.33100731 43.79169808 -26.30546773 35.99484644 -23.08203125 28.7734375 C-21.27368416 25.60220126 -19.04152953 23.08283157 -16.546875 20.43359375 C-11.86015153 15.22725529 -8.38152375 8.92386884 -4.73046875 2.96875 C-3.16348592 0.52150989 -3.08209762 0.49033371 0 0 Z " fill="#FED56F" transform="translate(477.75,163.5625)"/>
<path d="M0 0 C1.77435377 1.36719529 3.37512632 2.81262601 4.9609375 4.39453125 C11.13227077 9.25356951 16.87826025 9.39974647 24.4375 9.1875 C25.35982422 9.17396484 26.28214844 9.16042969 27.23242188 9.14648438 C29.48890383 9.11140953 31.74413226 9.06226387 34 9 C34.30292969 9.79664063 34.60585938 10.59328125 34.91796875 11.4140625 C38.15921959 20.08698761 38.15921959 20.08698761 44 27 C46.85231766 27.47893394 49.0795449 27.29699543 52 27 C50.67171574 30.91638453 49.05991233 33.3483131 46.125 36.25 C45.44695312 36.93578125 44.76890625 37.6215625 44.0703125 38.328125 C41.94178782 40.04700908 40.61419874 40.43415612 38 41 C37.505 41.99 37.505 41.99 37 43 C23.38046149 43.13389996 23.38046149 43.13389996 18.25 38.6875 C14.78900106 35.21897715 13.10182159 32.42550228 12.75 27.5 C12.98449 24.21713997 13.46230438 22.78249684 15 20 C12.91480784 20.2561291 10.8318495 20.53048735 8.75 20.8125 C7.58984375 20.96332031 6.4296875 21.11414063 5.234375 21.26953125 C2.00409388 21.76251926 2.00409388 21.76251926 -0.125 23.625 C-2 25 -2 25 -4.359375 24.85546875 C-5.14828125 24.63503906 -5.9371875 24.41460937 -6.75 24.1875 C-7.54921875 23.97480469 -8.3484375 23.76210938 -9.171875 23.54296875 C-9.77515625 23.36378906 -10.3784375 23.18460937 -11 23 C-11.84023188 18.64667264 -12.10770995 14.55557481 -12.0625 10.125 C-12.05347656 8.97257812 -12.04445313 7.82015625 -12.03515625 6.6328125 C-12.02355469 5.76398438 -12.01195312 4.89515625 -12 4 C-4.02234637 -1.00558659 -4.02234637 -1.00558659 0 0 Z " fill="#FE6011" transform="translate(324,351)"/>
<path d="M0 0 C13.72324377 1.20379331 28.04961426 2.72737286 38.25 12.8125 C43.73967275 19.41795989 48 29.39576451 48 38 C19.54866824 42.30033624 19.54866824 42.30033624 7.91015625 34.62109375 C6.25 33.25 6.25 33.25 4 31 C6 26 6 26 7.046875 23.6640625 C8.65996963 19.15533079 8.56933918 14.7213493 8 10 C5.94498496 5.96336331 3.30632549 3.07015938 0 0 Z " fill="#FE6010" transform="translate(165,235)"/>
<path d="M0 0 C-0.23783203 0.88558594 -0.23783203 0.88558594 -0.48046875 1.7890625 C-1.58241333 6.47854095 -1.58589096 9.89331708 0.6875 14.1875 C3.99041486 18.20455862 6.29658102 20.70766407 11.55078125 21.609375 C12.79214844 21.65578125 14.03351563 21.7021875 15.3125 21.75 C16.56675781 21.80671875 17.82101562 21.8634375 19.11328125 21.921875 C20.54220703 21.96054687 20.54220703 21.96054687 22 22 C21.04958706 24.38341898 20.46877569 25.72388597 18.22265625 27.046875 C12.05958791 29.05293703 6.4541558 29.32572375 0 29 C-0.33 29.99 -0.66 30.98 -1 32 C-2.671875 32.984375 -2.671875 32.984375 -4.75 33.75 C-5.76320313 34.14445312 -5.76320313 34.14445312 -6.796875 34.546875 C-9.62298221 35.12813109 -11.29491614 35.03220305 -14 34 C-15.328125 31.671875 -15.328125 31.671875 -16.25 28.75 C-16.56453125 27.79609375 -16.8790625 26.8421875 -17.203125 25.859375 C-19.09579557 19.06802765 -20.46212864 11.81778034 -17.875 5.0625 C-12.75357095 -0.57107195 -7.10297953 -0.37901274 0 0 Z " fill="#E54701" transform="translate(339,371)"/>
<path d="M0 0 C3.94949704 0.62816498 7.19892028 1.8645529 10.8125 3.5625 C11.78832031 4.01753906 12.76414063 4.47257812 13.76953125 4.94140625 C14.50558594 5.29074219 15.24164063 5.64007813 16 6 C16.02722517 8.20826378 16.04649729 10.41662638 16.0625 12.625 C16.07410156 13.85476563 16.08570313 15.08453125 16.09765625 16.3515625 C16.00863924 19.67723791 15.63686087 22.74047588 15 26 C14.31035156 26.03738281 13.62070313 26.07476562 12.91015625 26.11328125 C7.25004858 26.50925586 2.35290383 27.27992985 -2.9296875 29.37890625 C-5 30 -5 30 -10 30 C-12.31 24.72 -14.62 19.44 -17 14 C-14.1846875 12.205625 -14.1846875 12.205625 -11.3125 10.375 C-6.67294742 7.29657196 -3.18331213 4.54758875 0 0 Z " fill="#E7843E" transform="translate(205,347)"/>
<path d="M0 0 C0 0.33 0 0.66 0 1 C-1.75763672 1.34611328 -1.75763672 1.34611328 -3.55078125 1.69921875 C-12.57436189 3.54355248 -20.85082517 5.54909719 -29 10 C-29.87140625 10.45246094 -30.7428125 10.90492187 -31.640625 11.37109375 C-44.22267053 18.32135543 -50.44392815 29.99167407 -55.13671875 43.19921875 C-57.87889946 52.79016298 -58.13630755 62.08707882 -58.0625 72 C-58.05798828 73.15628906 -58.05347656 74.31257813 -58.04882812 75.50390625 C-58.03712529 78.33599225 -58.02072996 81.16796811 -58 84 C-60.15132166 81.22148253 -61.56484202 78.92355031 -62.625 75.5625 C-62.86476562 74.82128906 -63.10453125 74.08007812 -63.3515625 73.31640625 C-67.73080857 57.672473 -65.42697149 41.54144297 -58.25 27.1875 C-50.01968823 12.99588472 -36.15732129 5.93242654 -20.75 1.75 C-13.7958868 0.35917736 -7.08339252 -0.12878895 0 0 Z " fill="#FE6313" transform="translate(204,39)"/>
<path d="M0 0 C1.82274833 1.40448483 3.50257206 2.92758628 5.2109375 4.46875 C11.96813914 10.25220643 20.57023065 9.6853754 29 10 C28.2734375 13.8046875 28.2734375 13.8046875 25.8125 15.5625 C24.884375 16.036875 23.95625 16.51125 23 17 C22.154375 17.53625 21.30875 18.0725 20.4375 18.625 C17.0147966 19.99408136 14.70270491 20.24232692 11.0625 20.4375 C7.12141222 20.65105648 4.55832753 20.91238725 1.3125 23.1875 C-2.89114835 25.48760947 -4.82975219 24.85522975 -9.27734375 23.578125 C-10.13005859 23.29195313 -10.13005859 23.29195313 -11 23 C-11.84023188 18.64667264 -12.10770995 14.55557481 -12.0625 10.125 C-12.05347656 8.97257812 -12.04445313 7.82015625 -12.03515625 6.6328125 C-12.02355469 5.76398438 -12.01195312 4.89515625 -12 4 C-4.02234637 -1.00558659 -4.02234637 -1.00558659 0 0 Z " fill="#E7853D" transform="translate(324,351)"/>
<path d="M0 0 C2 1 2 1 2.609375 2.63671875 C4.35870919 13.22019061 3.41305172 21.33217859 -2.75 30 C-3.81621003 31.34706535 -4.89967553 32.68065359 -6 34 C-6.50273437 34.61101562 -7.00546875 35.22203125 -7.5234375 35.8515625 C-14.15273542 43.19229727 -24.13082993 48.13207299 -34 49 C-37.06278939 49.15076096 -40.12128296 49.21865563 -43.1875 49.25 C-43.9604541 49.25950684 -44.7334082 49.26901367 -45.52978516 49.27880859 C-50.07274433 49.25234475 -53.72318492 48.71891132 -58 47 C-58 46.67 -58 46.34 -58 46 C-56.94683594 45.85304687 -55.89367187 45.70609375 -54.80859375 45.5546875 C-42.36061311 43.67245872 -25.89834617 40.56126021 -17 31 C-15.73303986 30.18147351 -14.46191155 29.36937595 -13.1875 28.5625 C-4.26264441 21.90167027 -1.91390586 10.40896167 0 0 Z " fill="#FE6212" transform="translate(489,189)"/>
<path d="M0 0 C3.69179248 1.49429696 5.71607594 3.65871997 7.625 7.0625 C8.75806005 10.33936117 9.17993053 13.63157615 9.625 17.0625 C9.80933594 18.27164063 9.99367187 19.48078125 10.18359375 20.7265625 C12.15398947 34.78261093 11.82173304 48.90074787 11.625 63.0625 C9.67503743 59.28506125 8.27715125 55.40198094 6.9375 51.375 C6.68129883 50.60623535 6.42509766 49.8374707 6.16113281 49.04541016 C-6.44059259 10.52164816 -6.44059259 10.52164816 -5.375 3.0625 C-3.76656049 0.52285867 -3.01713824 0.07939837 0 0 Z " fill="#FD5E10" transform="translate(219.375,236.9375)"/>
<path d="M0 0 C2.23381953 4.08312914 2.70122081 7.36892261 3 12 C2.34 12.66 1.68 13.32 1 14 C0.06380187 10.84493858 -0.1057123 8.03413498 -0.0625 4.75 C-0.05347656 3.85796875 -0.04445312 2.9659375 -0.03515625 2.046875 C-0.02355469 1.37140625 -0.01195312 0.6959375 0 0 Z " fill="#F76E1C" transform="translate(155,358)"/>
</svg>
